<?xml version="1.0" encoding="UTF-8" standalone="no"?>
<!-- Created with Inkscape (http://www.inkscape.org/) -->

<svg
   xmlns:dc="http://purl.org/dc/elements/1.1/"
   xmlns:cc="http://creativecommons.org/ns#"
   xmlns:rdf="http://www.w3.org/1999/02/22-rdf-syntax-ns#"
   xmlns:svg="http://www.w3.org/2000/svg"
   xmlns="http://www.w3.org/2000/svg"
   xmlns:sodipodi="http://sodipodi.sourceforge.net/DTD/sodipodi-0.dtd"
   xmlns:inkscape="http://www.inkscape.org/namespaces/inkscape"
   width="122.86756mm"
   height="85.169441mm"
   viewBox="0 0 435.3575 301.78148"
   id="svg2"
   version="1.1"
   inkscape:version="0.91 r13725"
   sodipodi:docname="logo.svg">
  <defs
     id="defs4">
    <inkscape:perspective
       sodipodi:type="inkscape:persp3d"
       inkscape:vp_x="0 : 526.18106 : 1"
       inkscape:vp_y="0 : 999.99993 : 0"
       inkscape:vp_z="744.09446 : 526.18107 : 1"
       inkscape:persp3d-origin="372.04723 : 350.78738 : 1"
       id="perspective4308" />
  </defs>
  <sodipodi:namedview
     id="base"
     pagecolor="#ffffff"
     bordercolor="#666666"
     borderopacity="1.0"
     inkscape:pageopacity="0.0"
     inkscape:pageshadow="2"
     inkscape:zoom="1.979899"
     inkscape:cx="184.6202"
     inkscape:cy="85.863239"
     inkscape:document-units="px"
     inkscape:current-layer="layer1"
     showgrid="false"
     inkscape:window-width="1366"
     inkscape:window-height="744"
     inkscape:window-x="0"
     inkscape:window-y="24"
     inkscape:window-maximized="1"
     showguides="false"
     fit-margin-top="0"
     fit-margin-left="0"
     fit-margin-right="0"
     fit-margin-bottom="0" />
  <metadata
     id="metadata7">
    <rdf:RDF>
      <cc:Work
         rdf:about="">
        <dc:format>image/svg+xml</dc:format>
        <dc:type
           rdf:resource="http://purl.org/dc/dcmitype/StillImage" />
        <dc:title />
      </cc:Work>
    </rdf:RDF>
  </metadata>
  <g
     inkscape:label="Layer 1"
     inkscape:groupmode="layer"
     id="layer1"
     transform="translate(-168.4946,-303.95469)">
    <path
       style="fill:none;fill-rule:evenodd;stroke:#000000;stroke-width:1px;stroke-linecap:butt;stroke-linejoin:miter;stroke-opacity:1"
       d="m 432.97664,517.99151 42.4264,-8.33376"
       id="path4312"
       inkscape:connector-curvature="0" />
    <path
       style="fill:#ffffff;fill-opacity:1;fill-rule:evenodd;stroke:#000000;stroke-width:1.60000002;stroke-linecap:butt;stroke-linejoin:miter;stroke-miterlimit:4;stroke-dasharray:none;stroke-opacity:1"
       d="m 237.85714,538.43363 79.82143,43.79464 48.00502,-39.28829 -45.5978,-24.45863 z"
       id="path4180"
       inkscape:connector-curvature="0"
       sodipodi:nodetypes="ccccc" />
    <path
       style="fill:#ffffff;fill-opacity:1;fill-rule:evenodd;stroke:#000000;stroke-width:1.60000002;stroke-linecap:butt;stroke-linejoin:miter;stroke-miterlimit:4;stroke-dasharray:none;stroke-opacity:1"
       d="m 491.78572,604.8622 110.35714,-30 L 510,499.50506 388.37549,527.96765 Z"
       id="path4178"
       inkscape:connector-curvature="0" />
    <path
       style="fill:#000000;fill-opacity:0.19496855;fill-rule:evenodd;stroke:#000000;stroke-width:0.60000002;stroke-linecap:butt;stroke-linejoin:miter;stroke-miterlimit:4;stroke-dasharray:none;stroke-opacity:1"
       d="m 456.96429,515.39792 3.92857,-1.60714 4.10714,3.92857 c 0,0 1.25,2.85714 0.53572,2.85714 -0.71429,0 -4.82143,-0.35714 -4.82143,-0.35714 l -1.96429,-0.17857 -11.07143,2.67857 -5,1.78571 -2.85714,0.89286 0.53571,4.46428 0.71429,1.96429 5.71429,-1.07143 3.92857,-0.71428 2.5,1.07142 6.25,2.85715 5,-0.53572 5.89285,0 2.5,2.14286 1.07143,4.28571 1.07143,3.57143 -2.32143,1.42857 -9.10714,-3.21428 -6.25,-1.60714 -5.35714,-0.71429 -5,2.85714 -2.32143,2.32143 -5.17857,-0.71428 -5.71429,-1.96429 -4.46428,1.25 -3.92858,2.32143 -2.5,2.32143 2.5,6.25 1.07143,2.14285 -38.92857,-28.36222 43.92857,-9.49492 10.73596,-1.67739 3.24492,-0.65301 z"
       id="path4234"
       inkscape:connector-curvature="0"
       sodipodi:nodetypes="cccscccccccccccccccccccccccccccccccccc" />
    <path
       style="fill:#ffffff;fill-opacity:1;fill-rule:evenodd;stroke:#000000;stroke-width:1.60000002;stroke-linecap:butt;stroke-linejoin:miter;stroke-miterlimit:4;stroke-dasharray:none;stroke-opacity:1"
       d="m 432.5,328.43363 c 3.67459,-7.92651 31.1645,-16.6843 28.57143,-23.21428 -13.37824,-2.30895 -21.4717,4.37379 -33.92858,10.35714 -16.35682,-6.43294 -33.02054,-3.34459 -49.15178,5.9375 -9.03633,-3.30703 -14.96243,-9.7107 -33.70536,-7.72322 l 1.5625,1.29465 c 11.31196,6.63782 19.83469,13.8396 23.7641,17.79666 13.88599,-6.01759 27.92241,19.00022 30.74483,35.9087 -3.05311,-35.72863 8.10236,-41.72835 18.57143,-43.92858 6.53129,-0.83487 10.76127,0.92724 13.43556,3.8701 z"
       id="path4165"
       inkscape:connector-curvature="0"
       sodipodi:nodetypes="ccccccccccc" />
    <path
       style="fill:#b2b2b2;fill-opacity:1;fill-rule:evenodd;stroke:#000000;stroke-width:0.60000002;stroke-linecap:butt;stroke-linejoin:miter;stroke-miterlimit:4;stroke-dasharray:none;stroke-opacity:1"
       d="m 328.20487,528.4087 -5.20859,0.82075 -3.66181,-6.06091 -2.52538,3.40926 0.50508,4.29315 -0.12627,2.52538 -4.04061,1.26269 -3.283,3.66181 -1.64149,4.79822 0,4.54569 2.39911,2.77792 7.07107,-3.53554 3.53553,-0.88388 0.37881,3.53553 -2.02031,3.03046 -3.6618,1.38896 -3.03046,2.14658 -0.88388,2.0203 2.77792,2.02031 5.05076,-0.50508 2.65165,-1.6415 2.39911,-3.03046 3.03046,-1.01015 2.65165,1.6415 3.03046,2.0203 3.53553,2.14658 2.14658,1.76777 1.13642,2.14657 0.12627,1.01015 26.32709,-20.70812 -22.01321,-11.89282 z"
       id="path4232"
       inkscape:connector-curvature="0"
       sodipodi:nodetypes="cccccccccccccccccccccccccccccccc" />
    <path
       style="fill:#ffffff;fill-opacity:1;fill-rule:evenodd;stroke:#000000;stroke-width:1.60000002;stroke-linecap:butt;stroke-linejoin:miter;stroke-miterlimit:4;stroke-dasharray:none;stroke-opacity:1"
       d="m 168.77166,528.18744 69.28571,10 81.58549,-20.11095 -69.53724,-19.91558 z"
       id="path4214"
       inkscape:connector-curvature="0"
       sodipodi:nodetypes="ccccc" />
    <path
       style="fill:#b2b2b2;fill-opacity:1;fill-rule:evenodd;stroke:#000000;stroke-width:0.60000002;stroke-linecap:butt;stroke-linejoin:miter;stroke-miterlimit:4;stroke-dasharray:none;stroke-opacity:1"
       d="m 278.50171,528.48404 1.48912,1.67527 -1.38896,3.03046 c -1.88679,2.3715 -4.69442,2.90133 -7.19733,4.0406 l -1.76777,2.52539 c -0.2656,2.27937 -0.30937,4.44783 0.75761,6.06091 l 4.54569,3.03046 c 3.45885,-0.0792 5.09358,-1.37445 6.56599,-2.77792 l 3.03046,-4.54569 2.02031,-5.05076 c 1.28014,-1.77932 3.70304,-1.55881 6.31345,-1.01015 l 3.66181,-0.63135 c 1.15996,2.30483 1.4902,4.47136 0.63134,6.43972 1.28606,1.4673 1.29517,3.25384 1.26269,5.05077 l 2.27284,1.26269 -3.03046,2.0203 -6.06091,-0.50507 -3.283,4.67196 0.25254,4.04061 c 0.62627,1.55295 2.65045,0.54812 4.79822,0.88388 l 2.02031,2.77792 -1.76777,3.03045 -3.28299,3.53554 -52.02286,-29.7995 z"
       id="path4174"
       inkscape:connector-curvature="0"
       sodipodi:nodetypes="ccccccccccccccccccccccccc" />
    <path
       style="fill:#b2b2b2;fill-opacity:1;fill-rule:evenodd;stroke:#000000;stroke-width:0.60000002;stroke-linecap:butt;stroke-linejoin:miter;stroke-miterlimit:4;stroke-dasharray:none;stroke-opacity:1"
       d="m 237.62045,537.79409 -38.89087,-6.06092 2.0203,-8.08122 7.32361,-2.52538 1.51523,-2.0203 4.29315,4.54568 7.07106,0.50508 5.3033,-3.53554 5.05077,-2.27284 2.77792,2.52538 2.27284,-0.50507 1.26269,-6.31346 c 0,0 4.04061,-2.27284 3.03046,-1.51523 -1.01015,0.75762 -2.52538,7.82869 -2.52538,7.82869 l 1.01015,2.52538 3.53553,-4.54569 4.04061,1.26269 4.54569,4.29315 7.95495,-2.65165 5.05077,-3.03046 3.91434,0.63135 5.55583,2.0203 1.51523,4.29315 2.55149,2.87042 z"
       id="path4230"
       inkscape:connector-curvature="0"
       sodipodi:nodetypes="ccccccccccccscccccccccccc" />
    <path
       style="fill:#ffffff;fill-opacity:1;fill-rule:evenodd;stroke:#000000;stroke-width:1px;stroke-linecap:butt;stroke-linejoin:miter;stroke-opacity:1"
       d="M 318.09436,582.30487 419.375,573.83542 432.22814,561.08155 387.75903,527.8413 Z"
       id="path4222"
       inkscape:connector-curvature="0"
       sodipodi:nodetypes="ccccc" />
    <path
       style="fill:#80ffff;fill-opacity:1;fill-rule:evenodd;stroke:#000000;stroke-width:1.60000002;stroke-linecap:butt;stroke-linejoin:miter;stroke-miterlimit:4;stroke-dasharray:none;stroke-opacity:1"
       d="m 387.80405,527.68286 -69.96943,54.49191"
       id="path4216"
       inkscape:connector-curvature="0"
       sodipodi:nodetypes="cc" />
    <path
       style="fill:none;fill-rule:evenodd;stroke:#000000;stroke-width:1px;stroke-linecap:butt;stroke-linejoin:miter;stroke-opacity:1"
       d="m 346.73486,525.31511 -3.75481,8.58367 0.21928,3.28563"
       id="path4228"
       inkscape:connector-curvature="0"
       sodipodi:nodetypes="ccc" />
    <path
       style="fill:#b2b2b2;fill-opacity:1;fill-rule:evenodd;stroke:#000000;stroke-width:0.60000002;stroke-linecap:butt;stroke-linejoin:miter;stroke-miterlimit:4;stroke-dasharray:none;stroke-opacity:1"
       d="m 442.5,568.43363 10.89286,0 4.10714,0.71429 -0.17857,-6.07143 7.5,-0.71429 3.39286,3.21429 0.71428,4.82143 -1.07143,4.10714 2.5,4.46429 3.75,3.21428 4.28572,5 3.92857,4.46429 3.21429,-3.75 0.17857,-5 -3.21429,-3.21429 3.03572,-3.92857 7.67857,-3.39286 4.46428,4.28572 0.17857,4.64286 -3.39285,1.60714 -2.67857,1.96428 0.35714,3.92858 4.10714,0.89285 -0.35714,3.92857 -1.42857,2.32143 5.89285,0.89286 3.39286,0 1.96429,2.5 1.42857,1.60714 -14.82143,3.92857 z"
       id="path4236"
       inkscape:connector-curvature="0" />
    <path
       style="fill:#b2b2b2;fill-opacity:1;fill-rule:evenodd;stroke:#000000;stroke-width:0.60000002;stroke-linecap:butt;stroke-linejoin:miter;stroke-miterlimit:4;stroke-dasharray:none;stroke-opacity:1"
       d="m 514.04138,531.8811 -5.80838,5.17704 -4.29315,3.40926 -4.16688,0.63135 -3.91434,3.40926 1.26269,3.15673 3.15673,2.77792 2.0203,0.25254 3.15673,-3.40927 2.77792,2.02031 1.38896,0.63134 1.89404,-4.41942 5.05076,-2.77792 4.16688,-1.76776 3.53553,-2.02031 -2.77792,-4.79822 -2.90419,-1.6415 z"
       id="path4238"
       inkscape:connector-curvature="0" />
    <path
       style="fill:#b2b2b2;fill-opacity:1;fill-rule:evenodd;stroke:#000000;stroke-width:0.60000002;stroke-linecap:butt;stroke-linejoin:miter;stroke-miterlimit:4;stroke-dasharray:none;stroke-opacity:1"
       d="m 556.08898,538.95217 -0.75762,5.68211 -4.79822,-0.75761 -4.67196,-2.52538 -3.28299,1.38895 -3.53554,0 -2.65165,-3.28299 -3.91434,0.12627 -2.52538,2.14657 -3.28299,0.88388 -1.01016,2.14658 0.88389,2.27284 3.40926,2.39912 3.15673,0.25253 3.03045,-1.51523 c 4.1123,-0.83779 0.81894,6.17894 1.13643,8.08123 1.50986,1.75082 0.49528,1.99791 -1.01016,3.40926 l -3.15672,0.75761 c -2.45913,0.60479 -4.31897,1.63576 -6.81853,2.02031 l -2.65165,1.51523 c -1.76364,2.1346 -2.84543,1.24394 -5.42957,1.6415 l -2.77792,1.38896 -0.88389,3.78807 1.13643,3.6618 2.52538,2.39911 4.79822,-0.3788 3.78807,-0.75762 c 0.84804,-2.07554 1.03662,-4.11777 1.13642,-6.31345 5.72227,0.14388 10.53025,1.6123 14.64722,-2.02031 3.83811,-4.37234 1.01492,-7.88105 2.52538,-12.6269 l 3.91434,-0.88389 4.67195,1.01016 4.16688,2.0203 -0.63134,2.39911 -3.91434,2.52538 -1.26269,2.27285 0.75761,2.14657 4.67196,-1.38895 c 2.26133,-1.17458 4.22031,-0.25585 5.80837,1.26268 3.0283,1.00959 2.46236,3.2718 3.283,5.05077 -1.68631,1.50186 -4.04598,2.43516 -7.82868,4.92449 -0.81528,4.02323 0.98483,6.33032 3.40926,9.34391 l 40.27984,-10.6066 -45.96195,-37.24937 z"
       id="path4240"
       inkscape:connector-curvature="0"
       sodipodi:nodetypes="ccccccccccccccccccccccccccccccccccccccccccccc" />
    <path
       id="path4167"
       style="fill:#ffffff;fill-opacity:1;fill-rule:evenodd;stroke:#000000;stroke-width:1.60000002;stroke-linecap:butt;stroke-linejoin:miter;stroke-miterlimit:4;stroke-dasharray:none;stroke-opacity:1"
       d="m 446.52267,448.58157 c -1.84588,12.18277 -8.97389,15.39087 -16.87981,25.92349 4.70288,11.75722 14.74493,20.75693 20.66964,31.74108 l 12.1875,-4.24108 11.42857,7.85714 7.85715,13.57143 -5,-3.21428 -8.57143,-8.57143 -8.21429,-3.92857 -6.78571,3.57143 4.64285,8.92857 -1.42857,14.28571 L 445,513.79078 l -3.92857,0 -9.28572,22.05356 1.96429,-24.55357 8.4375,-2.90178 0.3125,-0.13393 c -0.27209,-0.34796 -0.54198,-0.7038 -0.81004,-1.06665 -9.07922,-12.29012 -16.04835,-32.62449 -34.90424,-27.32621 -26.46992,8.15949 -48.13744,21.7617 -60.75893,47.23214 -1.72683,3.03312 -3.89109,6.96309 -3.09245,9.77934 l 2.95852,5.13138 -0.71429,4.10714 -8.03571,-7.14285 -1.07143,7.67857 -3.57143,4.28571 -2.14286,-5.71428 -0.35714,-7.5 -20.17857,10.71428 0.69634,-3.9592 0.99746,-5.93619 4.10714,-3.33684 3.66334,-1.76777 12.39743,-4.00916 c 0.56614,-0.002 1.3583,-1.77759 3.73905,-3.42279 8.27097,-7.86248 10.77891,-10.59271 21.01079,-24.62165 5.08882,-6.97728 8.98429,-17.77426 8.39512,-33.0015 -6.23752,-7.19678 -12.17881,-16.49542 -16.48591,-26.37883 -7.58536,-17.406 -10.10211,-36.6257 -0.24181,-49.37224 6.08638,-7.41688 10.42205,-12.34807 13.60803,-15.70966 5.82289,-6.14385 7.8054,-7.0447 9.61674,-8.29536 -8.48899,-8.93531 -15.56358,-23.47803 -3.82515,-34.4312 14.51358,-9.94114 29.88847,16.81494 32.85714,34.59954 -3.05311,-35.72863 8.10236,-41.72835 18.57143,-43.92858 26.64897,-3.40645 14.98575,36.4218 6.42857,43.57143 l 3.14673,3.4614 0.4247,0.46717 0.89286,0 c 32.62168,-14.33325 43.10638,1.53657 58.75,20 9.40091,16.26967 12.07026,32.90753 7.85493,42.23681 -12.16719,26.9281 -31.95516,25.34075 -61.46968,-4.92807 34.65406,5.59036 30.87162,-21.19353 21.50113,-21.83978 -1.24712,-0.086 -7.33171,3.50524 -9.23356,3.97137 l -0.0588,-21.35997 -27.16548,0.49108 c -1.78239,19.15466 -3.96204,41.76659 -5.71428,57.85714 l 32.85714,0 0,-5.71429 -0.25254,-2.27284"
       inkscape:connector-curvature="0"
       sodipodi:nodetypes="ccccccccccccccccccccccccccccccccccccscscscccccccccscsccccccc" />
    <path
       style="fill:none;fill-rule:evenodd;stroke:#000000;stroke-width:1px;stroke-linecap:butt;stroke-linejoin:miter;stroke-opacity:1"
       d="m 345.72471,580.11589 c 14.29882,-18.09815 31.96069,-32.27275 50.25509,-45.7094"
       id="path4242"
       inkscape:connector-curvature="0"
       sodipodi:nodetypes="cc" />
    <path
       style="fill:none;fill-rule:evenodd;stroke:#000000;stroke-width:1px;stroke-linecap:butt;stroke-linejoin:miter;stroke-opacity:1"
       d="m 370.72598,578.34812 c 9.76694,-15.63258 22.20632,-26.5884 34.59773,-37.62818"
       id="path4244"
       inkscape:connector-curvature="0"
       sodipodi:nodetypes="cc" />
    <path
       style="fill:none;fill-rule:evenodd;stroke:#000000;stroke-width:1px;stroke-linecap:butt;stroke-linejoin:miter;stroke-opacity:1"
       d="m 389.91888,577.59051 c 6.06604,-10.79472 14.79442,-20.92386 23.48605,-31.06219"
       id="path4246"
       inkscape:connector-curvature="0"
       sodipodi:nodetypes="cc" />
    <path
       style="fill:none;fill-rule:evenodd;stroke:#000000;stroke-width:1px;stroke-linecap:butt;stroke-linejoin:miter;stroke-opacity:1"
       d="M 409.61686,575.31766 422.4963,554.357"
       id="path4248"
       inkscape:connector-curvature="0" />
    <ellipse
       style="color:#000000;clip-rule:nonzero;display:inline;overflow:visible;visibility:visible;opacity:1;isolation:auto;mix-blend-mode:normal;color-interpolation:sRGB;color-interpolation-filters:linearRGB;solid-color:#000000;solid-opacity:1;fill:none;fill-opacity:1;fill-rule:evenodd;stroke:#000000;stroke-width:1.26237726;stroke-linecap:butt;stroke-linejoin:miter;stroke-miterlimit:4;stroke-dasharray:none;stroke-dashoffset:0;stroke-opacity:1;color-rendering:auto;image-rendering:auto;shape-rendering:auto;text-rendering:auto;enable-background:accumulate"
       id="path4256"
       cx="464.26279"
       cy="242.14629"
       rx="6.5027757"
       ry="4.6054544"
       transform="matrix(0.96544236,0.26061668,-0.26061668,0.96544236,0,0)" />
    <ellipse
       style="color:#000000;clip-rule:nonzero;display:inline;overflow:visible;visibility:visible;opacity:1;isolation:auto;mix-blend-mode:normal;color-interpolation:sRGB;color-interpolation-filters:linearRGB;solid-color:#000000;solid-opacity:1;fill:#000000;fill-opacity:1;fill-rule:evenodd;stroke:#000000;stroke-width:0.83159262;stroke-linecap:butt;stroke-linejoin:miter;stroke-miterlimit:4;stroke-dasharray:none;stroke-dashoffset:0;stroke-opacity:1;color-rendering:auto;image-rendering:auto;shape-rendering:auto;text-rendering:auto;enable-background:accumulate"
       id="path4256-3"
       cx="387.62048"
       cy="354.96237"
       rx="3.6729357"
       ry="3.5383506" />
    <ellipse
       style="color:#000000;clip-rule:nonzero;display:inline;overflow:visible;visibility:visible;opacity:1;isolation:auto;mix-blend-mode:normal;color-interpolation:sRGB;color-interpolation-filters:linearRGB;solid-color:#000000;solid-opacity:1;fill:none;fill-opacity:1;fill-rule:evenodd;stroke:#000000;stroke-width:1.26237726;stroke-linecap:butt;stroke-linejoin:miter;stroke-miterlimit:4;stroke-dasharray:none;stroke-dashoffset:0;stroke-opacity:1;color-rendering:auto;image-rendering:auto;shape-rendering:auto;text-rendering:auto;enable-background:accumulate"
       id="path4256-6"
       cx="-228.98569"
       cy="-492.98746"
       rx="6.5027757"
       ry="4.6054544"
       transform="matrix(-0.90834222,0.41822771,-0.41822771,-0.90834222,0,0)" />
    <ellipse
       style="color:#000000;clip-rule:nonzero;display:inline;overflow:visible;visibility:visible;opacity:1;isolation:auto;mix-blend-mode:normal;color-interpolation:sRGB;color-interpolation-filters:linearRGB;solid-color:#000000;solid-opacity:1;fill:#000000;fill-opacity:1;fill-rule:evenodd;stroke:#000000;stroke-width:0.83159262;stroke-linecap:butt;stroke-linejoin:miter;stroke-miterlimit:4;stroke-dasharray:none;stroke-dashoffset:0;stroke-opacity:1;color-rendering:auto;image-rendering:auto;shape-rendering:auto;text-rendering:auto;enable-background:accumulate"
       id="path4256-3-7"
       cx="-90.083496"
       cy="-535.43878"
       rx="3.6729357"
       ry="3.5383506"
       transform="matrix(-0.76795494,0.64050387,-0.64050387,-0.76795494,0,0)" />
    <path
       style="fill:none;fill-opacity:1;fill-rule:evenodd;stroke:#000000;stroke-width:1.60000002;stroke-linecap:butt;stroke-linejoin:miter;stroke-miterlimit:4;stroke-dasharray:none;stroke-opacity:1"
       d="m 362.39223,342.73004 8.46002,2.27284 0,0"
       id="path4192"
       inkscape:connector-curvature="0" />
    <path
       style="fill:none;fill-rule:evenodd;stroke:#000000;stroke-width:1.60000002;stroke-linecap:butt;stroke-linejoin:miter;stroke-miterlimit:4;stroke-dasharray:none;stroke-opacity:1"
       d="m 362.5185,353.84172 7.19733,-0.50508"
       id="path4194"
       inkscape:connector-curvature="0" />
    <path
       style="fill:none;fill-rule:evenodd;stroke:#000000;stroke-width:1.60000002;stroke-linecap:butt;stroke-linejoin:miter;stroke-miterlimit:4;stroke-dasharray:none;stroke-opacity:1"
       d="m 368.57941,365.07967 5.68211,-2.90419"
       id="path4196"
       inkscape:connector-curvature="0" />
    <path
       style="fill:none;fill-rule:evenodd;stroke:#000000;stroke-width:1px;stroke-linecap:butt;stroke-linejoin:miter;stroke-opacity:1"
       d="m 381.82497,335.98548 c -9.59082,2.76691 -17.45211,14.72578 -7.81599,25.43238 5.87942,5.87404 12.67519,6.09495 21.89685,-4.74221"
       id="path4169"
       inkscape:connector-curvature="0"
       sodipodi:nodetypes="ccc" />
    <path
       style="fill:none;fill-rule:evenodd;stroke:#000000;stroke-width:1.60000002;stroke-linecap:butt;stroke-linejoin:miter;stroke-miterlimit:4;stroke-dasharray:none;stroke-opacity:1"
       d="m 421.86496,356.49337 7.95495,5.42957"
       id="path4198"
       inkscape:connector-curvature="0" />
    <path
       style="fill:none;fill-rule:evenodd;stroke:#000000;stroke-width:1px;stroke-linecap:butt;stroke-linejoin:miter;stroke-opacity:1"
       d="m 406.07143,332.71934 c 14.22047,-6.32062 22.18376,2.55405 20.17857,13.57143 -0.95906,18.12124 -18.05345,12.43852 -25.71428,9.64286"
       id="path4171"
       inkscape:connector-curvature="0"
       sodipodi:nodetypes="ccc" />
    <path
       style="fill:none;fill-rule:evenodd;stroke:#000000;stroke-width:1.60000002;stroke-linecap:butt;stroke-linejoin:miter;stroke-miterlimit:4;stroke-dasharray:none;stroke-opacity:1"
       d="m 426.03184,346.64438 8.71256,0.63135"
       id="path4200"
       inkscape:connector-curvature="0" />
    <path
       style="fill:none;fill-rule:evenodd;stroke:#000000;stroke-width:1.60000002;stroke-linecap:butt;stroke-linejoin:miter;stroke-miterlimit:4;stroke-dasharray:none;stroke-opacity:1"
       d="m 425.65303,336.79539 8.46003,-4.67195"
       id="path4202"
       inkscape:connector-curvature="0" />
    <path
       style="fill:none;fill-rule:evenodd;stroke:#000000;stroke-width:1px;stroke-linecap:butt;stroke-linejoin:miter;stroke-opacity:1"
       d="m 387.3935,527.71423 45.52449,-9.82667"
       id="path4310"
       inkscape:connector-curvature="0"
       sodipodi:nodetypes="cc" />
    <path
       style="fill:none;fill-rule:evenodd;stroke:#000000;stroke-width:1.60000002;stroke-linecap:butt;stroke-linejoin:miter;stroke-miterlimit:4;stroke-dasharray:none;stroke-opacity:1"
       d="m 447.24504,411.67295 c -0.25254,18.43529 -0.25254,18.43529 -0.25254,18.43529"
       id="path4177"
       inkscape:connector-curvature="0" />
    <path
       style="fill:#ffffff;fill-opacity:1;fill-rule:evenodd;stroke:#000000;stroke-width:1.60000002;stroke-linecap:butt;stroke-linejoin:miter;stroke-miterlimit:4;stroke-dasharray:none;stroke-opacity:1"
       d="m 347.80121,392.61342 c 6.08638,-7.41688 10.42205,-12.34807 13.70543,-15.3527 -2.63851,-1.70528 -0.93453,-6.84235 -10.79236,-4.89851 -64.06356,20.17783 -89.13216,88.78825 -85.71429,92.14285 30.26493,3.66278 58.27934,-9.65511 82.17403,-22.64364 0.3031,-0.16476 0.6056,-0.32935 0.88825,-0.18475 -7.60461,-17.09701 -10.12136,-36.31671 -0.26106,-49.06325 z"
       id="path4182"
       inkscape:connector-curvature="0"
       sodipodi:nodetypes="ccccscc" />
    <path
       style="fill:#ffffff;fill-opacity:1;fill-rule:evenodd;stroke:#000000;stroke-width:1px;stroke-linecap:butt;stroke-linejoin:miter;stroke-opacity:1"
       d="m 446.78571,440.39792 0.53572,8.57143 -33.03572,-0.35715 5.89286,-57.67857 27.5,-0.71428 -0.53571,40.17857 -13.03572,-0.89286 z"
       id="path4186"
       inkscape:connector-curvature="0" />
    <ellipse
       style="color:#000000;clip-rule:nonzero;display:inline;overflow:visible;visibility:visible;opacity:1;isolation:auto;mix-blend-mode:normal;color-interpolation:sRGB;color-interpolation-filters:linearRGB;solid-color:#000000;solid-opacity:1;fill:#000000;fill-opacity:1;fill-rule:evenodd;stroke:#000000;stroke-width:1.00899994;stroke-linecap:butt;stroke-linejoin:miter;stroke-miterlimit:4;stroke-dasharray:none;stroke-dashoffset:0;stroke-opacity:1;color-rendering:auto;image-rendering:auto;shape-rendering:auto;text-rendering:auto;enable-background:accumulate"
       id="path4295"
       cx="434.01785"
       cy="414.86221"
       rx="1.3392857"
       ry="2.5" />
    <ellipse
       style="color:#000000;clip-rule:nonzero;display:inline;overflow:visible;visibility:visible;opacity:1;isolation:auto;mix-blend-mode:normal;color-interpolation:sRGB;color-interpolation-filters:linearRGB;solid-color:#000000;solid-opacity:1;fill:none;fill-opacity:1;fill-rule:evenodd;stroke:#000000;stroke-width:1.00899994;stroke-linecap:butt;stroke-linejoin:miter;stroke-miterlimit:4;stroke-dasharray:none;stroke-dashoffset:0;stroke-opacity:1;color-rendering:auto;image-rendering:auto;shape-rendering:auto;text-rendering:auto;enable-background:accumulate"
       id="path4293"
       cx="435"
       cy="403.96936"
       rx="2.5"
       ry="3.3928571" />
  </g>
</svg>
